<svg xmlns="http://www.w3.org/2000/svg" width="900" height="900" viewBox="0 0 900 900">
  <rect width="900" height="900" fill="#f5f7f2"/>
  <rect x="60" y="60" width="780" height="780" rx="10" fill="#8b6f47"/>
  <rect x="90" y="90" width="720" height="720" fill="#000"/>

  <!-- squares -->
  <g id="board">
    <rect x="90" y="90" width="90" height="90" fill="#f0d9b5"/><rect x="180" y="90" width="90" height="90" fill="#b58863"/><rect x="270" y="90" width="90" height="90" fill="#f0d9b5"/><rect x="360" y="90" width="90" height="90" fill="#b58863"/><rect x="450" y="90" width="90" height="90" fill="#f0d9b5"/><rect x="540" y="90" width="90" height="90" fill="#b58863"/><rect x="630" y="90" width="90" height="90" fill="#f0d9b5"/><rect x="720" y="90" width="90" height="90" fill="#b58863"/>
    <rect x="90" y="180" width="90" height="90" fill="#b58863"/><rect x="180" y="180" width="90" height="90" fill="#f0d9b5"/><rect x="270" y="180" width="90" height="90" fill="#b58863"/><rect x="360" y="180" width="90" height="90" fill="#f0d9b5"/><rect x="450" y="180" width="90" height="90" fill="#b58863"/><rect x="540" y="180" width="90" height="90" fill="#f0d9b5"/><rect x="630" y="180" width="90" height="90" fill="#b58863"/><rect x="720" y="180" width="90" height="90" fill="#f0d9b5"/>
    <rect x="90" y="270" width="90" height="90" fill="#f0d9b5"/><rect x="180" y="270" width="90" height="90" fill="#b58863"/><rect x="270" y="270" width="90" height="90" fill="#f0d9b5"/><rect x="360" y="270" width="90" height="90" fill="#b58863"/><rect x="450" y="270" width="90" height="90" fill="#f0d9b5"/><rect x="540" y="270" width="90" height="90" fill="#b58863"/><rect x="630" y="270" width="90" height="90" fill="#f0d9b5"/><rect x="720" y="270" width="90" height="90" fill="#b58863"/>
    <rect x="90" y="360" width="90" height="90" fill="#b58863"/><rect x="180" y="360" width="90" height="90" fill="#f0d9b5"/><rect x="270" y="360" width="90" height="90" fill="#b58863"/><rect x="360" y="360" width="90" height="90" fill="#f0d9b5"/><rect x="450" y="360" width="90" height="90" fill="#b58863"/><rect x="540" y="360" width="90" height="90" fill="#f0d9b5"/><rect x="630" y="360" width="90" height="90" fill="#b58863"/><rect x="720" y="360" width="90" height="90" fill="#f0d9b5"/>
    <rect x="90" y="450" width="90" height="90" fill="#f0d9b5"/><rect x="180" y="450" width="90" height="90" fill="#b58863"/><rect x="270" y="450" width="90" height="90" fill="#f0d9b5"/><rect x="360" y="450" width="90" height="90" fill="#b58863"/><rect x="450" y="450" width="90" height="90" fill="#f0d9b5"/><rect x="540" y="450" width="90" height="90" fill="#b58863"/><rect x="630" y="450" width="90" height="90" fill="#f0d9b5"/><rect x="720" y="450" width="90" height="90" fill="#b58863"/>
    <rect x="90" y="540" width="90" height="90" fill="#b58863"/><rect x="180" y="540" width="90" height="90" fill="#f0d9b5"/><rect x="270" y="540" width="90" height="90" fill="#b58863"/><rect x="360" y="540" width="90" height="90" fill="#f0d9b5"/><rect x="450" y="540" width="90" height="90" fill="#b58863"/><rect x="540" y="540" width="90" height="90" fill="#f0d9b5"/><rect x="630" y="540" width="90" height="90" fill="#b58863"/><rect x="720" y="540" width="90" height="90" fill="#f0d9b5"/>
    <rect x="90" y="630" width="90" height="90" fill="#f0d9b5"/><rect x="180" y="630" width="90" height="90" fill="#b58863"/><rect x="270" y="630" width="90" height="90" fill="#f0d9b5"/><rect x="360" y="630" width="90" height="90" fill="#b58863"/><rect x="450" y="630" width="90" height="90" fill="#f0d9b5"/><rect x="540" y="630" width="90" height="90" fill="#b58863"/><rect x="630" y="630" width="90" height="90" fill="#f0d9b5"/><rect x="720" y="630" width="90" height="90" fill="#b58863"/>
    <rect x="90" y="720" width="90" height="90" fill="#b58863"/><rect x="180" y="720" width="90" height="90" fill="#f0d9b5"/><rect x="270" y="720" width="90" height="90" fill="#b58863"/><rect x="360" y="720" width="90" height="90" fill="#f0d9b5"/><rect x="450" y="720" width="90" height="90" fill="#b58863"/><rect x="540" y="720" width="90" height="90" fill="#f0d9b5"/><rect x="630" y="720" width="90" height="90" fill="#b58863"/><rect x="720" y="720" width="90" height="90" fill="#f0d9b5"/>
  </g>

  <!-- highlight last move e2->e4 -->
  <rect x="450" y="630" width="90" height="90" fill="#fde68a" opacity="0.6"/>
  <rect x="450" y="450" width="90" height="90" fill="#86efac" opacity="0.6"/>

  <!-- pieces (unicode) -->
  <g font-size="68" font-family="Apple Symbols, Noto Sans Symbols2, serif" text-anchor="middle" dominant-baseline="middle">
    <!-- black back rank -->
    <text x="135" y="135">♜</text><text x="225" y="135">♞</text><text x="315" y="135">♝</text><text x="405" y="135">♛</text><text x="495" y="135">♚</text><text x="585" y="135">♝</text><text x="675" y="135">♞</text><text x="765" y="135">♜</text>
    <!-- black pawns -->
    <text x="135" y="225">♟</text><text x="225" y="225">♟</text><text x="315" y="225">♟</text><text x="405" y="225">♟</text><text x="495" y="225">♟</text><text x="585" y="225">♟</text><text x="675" y="225">♟</text><text x="765" y="225">♟</text>
    <!-- white pawns (e pawn moved to e4) -->
    <text x="135" y="675">♙</text><text x="225" y="675">♙</text><text x="315" y="675">♙</text><text x="405" y="675">♙</text><text x="585" y="675">♙</text><text x="675" y="675">♙</text><text x="765" y="675">♙</text>
    <text x="495" y="495">♙</text>
    <!-- white back rank -->
    <text x="135" y="765">♖</text><text x="225" y="765">♘</text><text x="315" y="765">♗</text><text x="405" y="765">♕</text><text x="495" y="765">♔</text><text x="585" y="765">♗</text><text x="675" y="765">♘</text><text x="765" y="765">♖</text>
  </g>

  <!-- file/rank labels -->
  <g font-size="26" font-family="Avenir, Helvetica, sans-serif" fill="#334155" text-anchor="middle" dominant-baseline="middle">
    <text x="135" y="856">a</text><text x="225" y="856">b</text><text x="315" y="856">c</text><text x="405" y="856">d</text><text x="495" y="856">e</text><text x="585" y="856">f</text><text x="675" y="856">g</text><text x="765" y="856">h</text>
    <text x="48" y="135">8</text><text x="48" y="225">7</text><text x="48" y="315">6</text><text x="48" y="405">5</text><text x="48" y="495">4</text><text x="48" y="585">3</text><text x="48" y="675">2</text><text x="48" y="765">1</text>
  </g>

  <rect x="90" y="20" width="720" height="44" rx="8" fill="#12324a"/>
  <text x="450" y="50" text-anchor="middle" font-size="24" font-family="Avenir, Helvetica, sans-serif" fill="#e2e8f0">Board style preview: Classic wood + move highlight + coordinates</text>
</svg>
